<svg xmlns="http://www.w3.org/2000/svg" style="display: none;"><symbol id="truck" viewBox="0 0 493.349 493.349"><title>truck</title><path d="M487.932,51.1c-3.613-3.612-7.905-5.424-12.847-5.424h-292.36c-4.948,0-9.233,1.812-12.847,5.424 c-3.615,3.617-5.424,7.902-5.424,12.85v54.818h-45.683c-5.14,0-10.71,1.237-16.705,3.711c-5.996,2.478-10.801,5.518-14.416,9.135 l-56.532,56.531c-2.473,2.474-4.612,5.327-6.424,8.565c-1.807,3.23-3.14,6.14-3.997,8.705c-0.855,2.572-1.477,6.089-1.854,10.566 c-0.378,4.475-0.62,7.758-0.715,9.853c-0.091,2.092-0.091,5.71,0,10.85c0.096,5.142,0.144,8.47,0.144,9.995v91.36 c-4.947,0-9.229,1.807-12.847,5.428C1.809,347.076,0,351.363,0,356.312c0,2.851,0.378,5.376,1.14,7.562 c0.763,2.19,2.046,3.949,3.858,5.284c1.807,1.335,3.378,2.426,4.709,3.285c1.335,0.855,3.571,1.424,6.711,1.711 s5.28,0.479,6.423,0.575c1.143,0.089,3.568,0.089,7.279,0c3.715-0.096,5.855-0.144,6.427-0.144h18.271 c0,20.17,7.139,37.397,21.411,51.674c14.277,14.274,31.501,21.413,51.678,21.413c20.175,0,37.401-7.139,51.675-21.413 c14.277-14.276,21.411-31.504,21.411-51.674H310.63c0,20.17,7.139,37.397,21.412,51.674c14.271,14.274,31.498,21.413,51.675,21.413 c20.181,0,37.397-7.139,51.675-21.413c14.277-14.276,21.412-31.504,21.412-51.674c0.568,0,2.711,0.048,6.42,0.144 c3.713,0.089,6.14,0.089,7.282,0c1.144-0.096,3.289-0.288,6.427-0.575c3.139-0.287,5.373-0.855,6.708-1.711s2.901-1.95,4.709-3.285 c1.81-1.335,3.097-3.094,3.856-5.284c0.77-2.187,1.143-4.712,1.143-7.562V63.953C493.353,59.004,491.546,54.724,487.932,51.1z M153.597,400.28c-7.229,7.23-15.797,10.854-25.694,10.854c-9.898,0-18.464-3.62-25.697-10.854 c-7.233-7.228-10.848-15.797-10.848-25.693c0-9.897,3.619-18.47,10.848-25.701c7.232-7.228,15.798-10.848,25.697-10.848 c9.897,0,18.464,3.617,25.694,10.848c7.236,7.231,10.853,15.804,10.853,25.701C164.45,384.483,160.833,393.052,153.597,400.28z M164.45,228.403H54.814v-8.562c0-2.475,0.855-4.569,2.568-6.283l55.674-55.672c1.712-1.714,3.809-2.568,6.283-2.568h45.111 V228.403z M409.41,400.28c-7.23,7.23-15.797,10.854-25.693,10.854c-9.9,0-18.47-3.62-25.7-10.854 c-7.231-7.228-10.849-15.797-10.849-25.693c0-9.897,3.617-18.47,10.849-25.701c7.23-7.228,15.8-10.848,25.7-10.848 c9.896,0,18.463,3.617,25.693,10.848c7.231,7.235,10.852,15.804,10.852,25.701C420.262,384.483,416.648,393.052,409.41,400.28z"/></symbol><symbol id="dinner" viewBox="0 0 512 512"><title>dinner</title><g> <g> <path d="M264.181,76.909c-93.646,0-169.561,75.915-169.561,169.561s75.915,169.561,169.561,169.561 s169.561-75.915,169.561-169.561S357.827,76.909,264.181,76.909z M264.18,375.129c-70.942,0-128.658-57.716-128.658-128.658 s57.716-128.658,128.658-128.658s128.658,57.716,128.658,128.658S335.123,375.129,264.18,375.129z"/> </g> </g><g> <g> <path d="M264.18,152.299c-51.926,0-94.171,42.245-94.171,94.171c0,51.926,42.245,94.171,94.171,94.171 c51.926,0,94.171-42.245,94.171-94.171S316.107,152.299,264.18,152.299z"/> </g> </g><g> <g> <path d="M501.315,260.687V54.64c0-1.988-1.269-3.755-3.155-4.39c-1.884-0.634-3.963,0.007-5.166,1.591 c-25.708,33.903-39.622,75.283-39.622,117.83v75.378c0,8.645,7.008,15.654,15.654,15.654h6.526 c-6.433,66.443-10.684,159.37-10.684,170.251c0,17.142,10.551,31.038,23.566,31.038c13.015,0,23.566-13.897,23.566-31.038 C512,420.072,507.749,327.13,501.315,260.687z"/> </g> </g><g> <g> <path d="M68.417,219.843c13.042-7.9,21.759-22.224,21.759-38.586l-6.46-105.621c-0.247-4.026-3.584-7.165-7.618-7.165 c-4.363,0-7.839,3.655-7.622,8.01l4.201,84.709c0,4.762-3.861,8.621-8.621,8.621c-4.761,0-8.621-3.861-8.621-8.621l-2.099-84.674 c-0.111-4.475-3.77-8.044-8.247-8.044c-4.477,0-8.135,3.57-8.247,8.044l-2.099,84.674c0,4.762-3.861,8.621-8.621,8.621 c-4.761,0-8.621-3.861-8.621-8.621l4.201-84.709c0.216-4.357-3.262-8.01-7.622-8.01c-4.034,0-7.371,3.139-7.617,7.165L0,181.258 c0,16.362,8.716,30.685,21.759,38.586c8.488,5.141,13.22,14.753,12.126,24.617c-7.363,66.358-12.363,174.693-12.363,186.494 c0,17.142,10.551,31.038,23.566,31.038c13.015,0,23.566-13.897,23.566-31.038c0-11.801-5.001-120.136-12.363-186.494 C55.196,234.602,59.933,224.982,68.417,219.843z"/> </g> </g></symbol><symbol id="passage-of-time" viewBox="0 0 47.001 47.001"><title>passage-of-time</title><path d="M46.907,20.12c-0.163-0.347-0.511-0.569-0.896-0.569h-2.927C41.223,9.452,32.355,1.775,21.726,1.775 C9.747,1.775,0,11.522,0,23.501C0,35.48,9.746,45.226,21.726,45.226c7.731,0,14.941-4.161,18.816-10.857 c0.546-0.945,0.224-2.152-0.722-2.699c-0.944-0.547-2.152-0.225-2.697,0.72c-3.172,5.481-9.072,8.887-15.397,8.887 c-9.801,0-17.776-7.974-17.776-17.774c0-9.802,7.975-17.776,17.776-17.776c8.442,0,15.515,5.921,17.317,13.825h-2.904 c-0.385,0-0.732,0.222-0.896,0.569c-0.163,0.347-0.11,0.756,0.136,1.051l4.938,5.925c0.188,0.225,0.465,0.355,0.759,0.355 c0.293,0,0.571-0.131,0.758-0.355l4.938-5.925C47.018,20.876,47.07,20.467,46.907,20.12z"/><path d="M21.726,6.713c-1.091,0-1.975,0.884-1.975,1.975v11.984c-0.893,0.626-1.481,1.658-1.481,2.83 c0,1.906,1.551,3.457,3.457,3.457c0.522,0,1.014-0.125,1.458-0.334l6.87,3.965c0.312,0.181,0.65,0.266,0.986,0.266 c0.682,0,1.346-0.354,1.712-0.988c0.545-0.943,0.222-2.152-0.724-2.697l-6.877-3.971c-0.092-1.044-0.635-1.956-1.449-2.526V8.688 C23.701,7.598,22.816,6.713,21.726,6.713z M21.726,24.982c-0.817,0-1.481-0.665-1.481-1.48c0-0.816,0.665-1.481,1.481-1.481 s1.481,0.665,1.481,1.481C23.207,24.317,22.542,24.982,21.726,24.982z"/></symbol></svg>